<svg id="Layer_1" data-name="Layer 1" xmlns="http://www.w3.org/2000/svg" viewBox="0 0 204.41 103.44"><defs><style>.cls-1{fill:#fff;}</style></defs><path class="cls-1" d="M220.81,126.75c9.65,0,9.66-15,0-15s-9.67,15,0,15Z" transform="translate(-25.47 -28)"/><path class="cls-1" d="M77.9,39.16A11,11,0,0,0,72,37.48c-3,.07-6.22.3-9.69.67a29.08,29.08,0,0,0-9.07,2.35,6,6,0,0,0-3.87,5.72c.23,4.63,2.5,6.94,6.84,6.94l1.12-.11c.59,0,1,.41,1.12,1.23q1.89,12,2.57,17.14.78,6.49,1.68,17.58l-.11,3A83.89,83.89,0,0,1,61.5,102.5,25.94,25.94,0,0,1,58,111.85c0,1.72-1.22,3.17-3.64,4.37a21.38,21.38,0,0,1-7.79,2.12q-4.59,0-5.48-5a8.23,8.23,0,0,0-1.74-5.09,5.44,5.44,0,0,0-4.54-2.3q-4.7.57-5.6,4.93,0,8.73,4.09,13.89t11.82,5.6l1.9.11a24.53,24.53,0,0,0,13.78-4,32.79,32.79,0,0,0,10.08-10.64,44.71,44.71,0,0,0,5.6-15.17,141.43,141.43,0,0,0,1.79-22.51c-.08-4.33-.24-7.79-.5-10.36s-.62-5.12-1.07-7.62-.93-5.77-1.45-9.8c0-.52.41-.86,1.23-1A5.61,5.61,0,0,0,80.59,44,5.35,5.35,0,0,0,77.9,39.16Z" transform="translate(-25.47 -28)"/><path class="cls-1" d="M123.26,65.37a21.25,21.25,0,0,0-24.86-.9,31.27,31.27,0,0,0-8.85,9.24,48,48,0,0,0-7.28,24.7,40.66,40.66,0,0,0,2.8,15.06,22.69,22.69,0,0,0,10.08,11.37,30.13,30.13,0,0,0,15.46,4.26h1.23a17.25,17.25,0,0,0,11-4.82,7.89,7.89,0,0,0,1.62-2.24,8.22,8.22,0,0,0,.62-2.8,5.81,5.81,0,0,0-1.63-4.09,5.34,5.34,0,0,0-4.09-1.73,5.93,5.93,0,0,0-2.74.5,9.52,9.52,0,0,0-2,1.51,5.86,5.86,0,0,1-1.84,1.29,9.41,9.41,0,0,1-2.8.28q-6.51,0-8.74-3.7a17,17,0,0,1-2.91-9.18l-.11-.78c0-.6.37-.9,1.12-.9l10.41.34c.67.07,1.64.13,2.91.16s3.14.13,5.6.28a8.36,8.36,0,0,0,6.84-2.85,16.62,16.62,0,0,0,3.24-7.56,70,70,0,0,0,1.12-10.31,38.78,38.78,0,0,0-1.17-9.4A13.94,13.94,0,0,0,123.26,65.37Zm-5.93,18a43.93,43.93,0,0,1-.67,6.94c-.23.68-.56,1-1,1a67.77,67.77,0,0,0-9.41-.67l-4.82-.11c-.89,0-1.34-.26-1.34-.79q1.68-10.52,10.08-15.9a5,5,0,0,1,2.24-.56,4.05,4.05,0,0,1,3.86,2.18,12.11,12.11,0,0,1,1.18,5.77Z" transform="translate(-25.47 -28)"/><path class="cls-1" d="M160.35,90.45a22.37,22.37,0,0,0-5.63.58,31.82,31.82,0,0,1-3.33.57,7.13,7.13,0,0,1-3.73-1.15,3.58,3.58,0,0,1-1.89-3.21,16.6,16.6,0,0,1,1.72-6.95c1-1.88,2.95-3.12,5.86-3.73A6.85,6.85,0,0,1,157,77.82a11.52,11.52,0,0,0,5.4,1.72l4.13-.23a7.83,7.83,0,0,0,5.23-2.81,8.08,8.08,0,0,0,2.12-5.34q0-5.85-6.89-8.84-6.19-2.88-10.56-2.87-5.4,0-11.14,4A26.93,26.93,0,0,0,135.14,74.6,30.75,30.75,0,0,0,132,87.81q.57,9.19,3.73,12.69T147,104.35l8.61-.69a4.34,4.34,0,0,1,4.08,2.06,8.4,8.4,0,0,1,1.21,4.25,10,10,0,0,1-1.5,5.17,3.3,3.3,0,0,1-1.89,1.78,8.51,8.51,0,0,1-2.7.4,2.31,2.31,0,0,1-1.32-.34,3,3,0,0,1-.81-.75,2.35,2.35,0,0,0-.63-.63A5.17,5.17,0,0,0,147.6,113a9.27,9.27,0,0,0-4.65,1.78q-1.55,1.32-1.55,4.76a12.72,12.72,0,0,0,4.94,8.16,14.22,14.22,0,0,0,8.61,2.87l.81-.12q9.41,0,14.87-5.51t6-14.81a22.87,22.87,0,0,0-4-13.61Q168.73,90.92,160.35,90.45Z" transform="translate(-25.47 -28)"/><path class="cls-1" d="M229.12,31.85h0a8.14,8.14,0,0,0-5.38-3.6,22.25,22.25,0,0,0-7.49.16C141.1,41.26,113.54,31.54,88.94,37.79a5.9,5.9,0,0,0-4.43,5.92,7.72,7.72,0,0,0,3.26,6.43s8,5.6,51.12-.5h.05c1-.1,2.08-.24,3.1-.42a313.61,313.61,0,0,1,37-2.24c2.82.08,4.32.21,4.48.37a1.68,1.68,0,0,1,.25,1.12L183.41,80q0,32.15,7.23,48.59A4.26,4.26,0,0,0,193,130.7a8.52,8.52,0,0,0,3.37.75,7.62,7.62,0,0,0,5-1.87q2.25-1.87,2.49-5.86a29.5,29.5,0,0,0-.37-4.61q-.25-1.86-.87-19.69,0-24.17,5.48-53.45c0-.75.45-1.25,1.37-1.49l5.48-.25a28.68,28.68,0,0,0,10.22-1.62q4.23-1.62,4.73-6.86A11.09,11.09,0,0,0,229.12,31.85Z" transform="translate(-25.47 -28)"/><path class="cls-1" d="M59,110.29c-4,3.95-11.46,9.14-17.49,7.08-4.27-1.45-6.1,5.3-1.86,6.75,8.46,2.88,18.56-3.19,24.3-8.88,3.21-3.17-1.74-8.12-4.95-4.95Z" transform="translate(-25.47 -28)"/><path class="cls-1" d="M35.72,119.58c5.39,5.63,13.27,5,20,2.39,4.14-1.64,2.34-8.41-1.86-6.75s-9.54,3.2-13.17-.59c-3.12-3.27-8.06,1.69-5,5Z" transform="translate(-25.47 -28)"/><path class="cls-1" d="M61.31,102.94a25.48,25.48,0,0,1-9.6,14.81c-3.6,2.64-.11,8.72,3.53,6a32.82,32.82,0,0,0,12.82-19c1-4.38-5.7-6.25-6.75-1.87Z" transform="translate(-25.47 -28)"/><path class="cls-1" d="M61.18,118a42.35,42.35,0,0,0,6.23-10.2c.74-1.74.53-3.75-1.25-4.79-1.47-.86-4-.5-4.79,1.26A36.49,36.49,0,0,1,56.23,113a3.61,3.61,0,0,0,0,4.95c1.23,1.22,3.76,1.47,5,0Z" transform="translate(-25.47 -28)"/><path class="cls-1" d="M58.44,110.18c-1.14,1.31-2.27,2.64-3.37,4a3.58,3.58,0,0,0,0,5c1.28,1.18,3.71,1.51,5,0,1.1-1.35,2.23-2.68,3.37-4a3.5,3.5,0,0,0-5-4.94Z" transform="translate(-25.47 -28)"/><path class="cls-1" d="M34.83,116.88a14,14,0,0,0,12.28,7.24c4.5,0,4.51-7,0-7a7,7,0,0,1-6.24-3.77c-2.15-4-8.19-.43-6,3.53Z" transform="translate(-25.47 -28)"/><path class="cls-1" d="M34.18,118.61c10.3,0,10.31-16,0-16s-10.31,16,0,16Z" transform="translate(-25.47 -28)"/><path class="cls-1" d="M143.84,126.31c10.94,0,10.95-17,0-17s-11,17,0,17Z" transform="translate(-25.47 -28)"/><path class="cls-1" d="M33.68,118.17c10.94,0,11-17,0-17s-10.95,17,0,17Z" transform="translate(-25.47 -28)"/></svg>